<?xml version="1.0" encoding="UTF-8"?>
<svg viewBox="0 0 141 77" xmlns="http://www.w3.org/2000/svg">
<g fill="none" fill-rule="evenodd">
<g transform="translate(4 4)">
<rect x="21.5" y="22.5" width="115" height="40" rx="20" fill="#79C400" stroke="#78C402"/>
<path d="M43 38h72c5.523 0 10 4.477 10 10s-4.477 10-10 10H43V38z" fill="#FFF"/>
<path d="M42.526 31.13V16.624C40.196 5.541 34.264 0 24.73 0 15.195 0 9.285 5.188 7 15.565v13.361" stroke="#E4EFED" stroke-width="8"/>
<circle cx="25" cy="44" r="25" fill="#79C400" stroke="#F2F8F6" stroke-width="7"/>
<path d="M12 40.835l1.795 11.791h4.27V40.835zm6.814 1.215v10.134c1.305-.153 2.255-.153 2.85 0 .893.23 5.174 1.779 7.91 1.779 2.735 0 4.845-.895 4.931-1.779a3.274 3.274 0 00-.251-1.655c1.14-.067 1.66-.457 1.56-1.17-.1-.714-.326-1.165-.678-1.353 1.176-1.068 1.704-1.898 1.582-2.489-.121-.591-.423-1.105-.904-1.54 1.244-2.351 1.018-3.637-.678-3.858-2.544-.332-6.512.434-7.361-.392-.85-.826 2.91-7.21.281-8.576-2.628-1.366-4.467 6.934-5.86 8.576a7.58 7.58 0 01-3.382 2.322z" fill="#FFF"/>
<path d="M60.396 50.598h2.16c.108 1.008.522 1.89 1.638 1.89 1.062 0 1.458-.666 1.458-1.584 0-.99-.486-1.584-2.016-2.304-2.088-.99-2.916-1.872-2.916-3.69 0-1.944 1.26-3.276 3.456-3.276 2.754 0 3.42 1.854 3.456 3.438H65.49c-.054-.702-.234-1.728-1.35-1.728-.864 0-1.242.558-1.242 1.386 0 .882.396 1.296 1.818 1.962 2.178 1.008 3.168 1.98 3.168 4.014 0 1.926-1.188 3.51-3.762 3.51-2.808 0-3.654-1.8-3.726-3.618zm15.336-3.906v1.89h-3.924v3.546H76.2L75.93 54h-6.264V41.814h6.246v1.908h-4.104v2.97h3.924zm7.128 3.762h2.16c-.054.612-.288 3.762-3.654 3.762-3.474 0-3.87-3.042-3.87-6.318 0-3.942 1.152-6.264 3.996-6.264 3.222 0 3.474 2.772 3.528 3.744h-2.16c-.036-.414-.054-1.908-1.404-1.908-1.368 0-1.71 1.674-1.71 4.464 0 2.304.234 4.464 1.656 4.464 1.296 0 1.404-1.476 1.458-1.944zm3.816-8.64h2.178v8.388c0 .99.252 2.178 1.602 2.178 1.296 0 1.566-.99 1.566-2.16v-8.406H94.2v8.442c0 2.178-.846 3.96-3.78 3.96-2.898 0-3.744-1.674-3.744-3.96v-8.442zm12.834 6.984h-.936V54h-2.16V41.814h3.726c2.214 0 3.474 1.17 3.474 3.33 0 1.764-.954 2.52-1.584 2.772.936.45 1.386 1.242 1.386 3.042v.486c0 1.386.072 1.908.162 2.556h-2.106c-.18-.558-.198-1.53-.198-2.574v-.432c0-1.638-.378-2.196-1.764-2.196zm-.936-5.22v3.456H99.6c1.314 0 1.836-.558 1.836-1.782 0-1.062-.504-1.674-1.62-1.674h-1.242zm13.032 3.114v1.89h-3.924v3.546h4.392l-.27 1.872h-6.264V41.814h6.246v1.908h-4.104v2.97h3.924z" fill="#626262" fill-rule="nonzero"/>
</g>
<g fill="#FFF">
<path d="M73.795 31.998c-1.374-.068-2.058.71-2.25 1.982-.04.265-.08.53-.11.796-.05.466-.137.93-.115 1.404.03.652.323 1.045.94 1.211.347.094.705.11 1.063.095 1.169-.05 1.81-.612 2.034-1.788.052-.27.086-.544.12-.818.067-.538.159-1.075.121-1.622-.045-.67-.394-1.08-1.033-1.214-.236-.05-.473-.036-.77-.046zm.807-1.517c.413.072.833.104 1.236.234.437.14.845.33 1.205.624.614.502.893 1.178.897 1.96a12.31 12.31 0 01-.327 2.773c-.299 1.318-1.113 2.197-2.376 2.584-1.413.434-2.844.463-4.269.026a3.382 3.382 0 01-.835-.41c-.834-.54-1.179-1.345-1.144-2.317.029-.787.13-1.57.283-2.34.33-1.667 1.376-2.672 3.08-2.996.303-.056.61-.092.915-.138h1.335zM96.197 32c-1.48-.06-2.112.69-2.32 1.877a21.338 21.338 0 00-.256 2.075c-.066.833.378 1.376 1.16 1.484.398.054.795.068 1.199.02.81-.098 1.367-.528 1.6-1.308.272-.911.383-1.86.376-2.811-.003-.769-.383-1.161-1.135-1.307-.207-.04-.416-.02-.624-.03zm.77-1.52c.34.061.68.107 1.015.184.499.112.957.322 1.369.631.554.416.893.982.93 1.666.069 1.23-.06 2.453-.458 3.621-.349 1.028-1.102 1.688-2.103 2.027a7.175 7.175 0 01-4.357.102c-1.463-.42-2.162-1.416-2.077-2.952a14.57 14.57 0 01.288-2.219c.359-1.684 1.451-2.593 3.072-2.919.306-.06.617-.094.926-.14h1.395zm19.336 7.008h.145c1.222-.021 1.884-.577 2.123-1.79.05-.254.089-.512.116-.77.059-.587.2-1.166.123-1.764-.078-.599-.422-.995-1.011-1.112-.429-.087-.865-.074-1.293-.028-.916.098-1.452.65-1.693 1.525-.083.3-.122.605-.156.91-.063.548-.178 1.09-.166 1.645.016.736.337 1.142 1.049 1.308.25.056.506.078.763.076zm1.5-7.008c.355.065.716.088 1.065.182.639.17 1.224.442 1.683.94.563.61.69 1.362.623 2.153a21.16 21.16 0 01-.265 2.073c-.29 1.566-1.235 2.533-2.75 2.916-1.231.311-2.476.34-3.713.031-.698-.175-1.318-.503-1.787-1.079a2.154 2.154 0 01-.491-1.272c-.052-1.078.088-2.144.355-3.18.35-1.357 1.275-2.154 2.586-2.527.441-.125.897-.162 1.347-.237h1.347z" fill-rule="nonzero"/>
<path d="M60 35.649c.073-.538.133-1.078.22-1.613.318-1.936 1.365-2.966 3.299-3.273.565-.09 1.13-.1 1.7-.098.95.004 1.9 0 2.85.001.282.001.307.034.223.294-.242.754-.723 1.268-1.664 1.243-.761-.018-1.526-.05-2.288.038-.922.106-1.486.583-1.695 1.49-.17.736-.274 1.486-.288 2.24-.015.758.396 1.192 1.152 1.277.923.103 1.85.028 2.774.05.342.007.683.002 1.024 0 .16 0 .214.056.176.224-.172.789-.79 1.304-1.595 1.306-.885.004-1.77.018-2.656-.005-.916-.024-1.757-.288-2.461-.908-.465-.41-.669-.945-.771-1.535v-.731zm27.339-1.371c-.3.375-.6.75-.898 1.127-.437.55-.872 1.097-1.304 1.649-.503.645-.993.641-1.375-.114-.416-.826-.857-1.642-1.288-2.46-.041-.079-.085-.154-.164-.3a127 127 0 00-.157 1.225c-.095.751-.173 1.503-.288 2.25-.108.705-.65 1.155-1.36 1.168-.322.007-.645-.001-.967.001-.156.001-.214-.063-.194-.223.218-1.741.432-3.481.646-5.224.098-.797.2-1.595.29-2.394.02-.18.086-.26.272-.25.424.024.852-.036 1.276.048.367.073.646.255.847.582.628 1.023 1.27 2.038 1.906 3.055.164.261.164.258.358.037.953-1.082 1.903-2.165 2.861-3.243.304-.342.716-.45 1.154-.472.32-.014.644.01.966-.008.222-.013.283.065.255.276-.092.687-.174 1.374-.26 2.06l-.512 4.12c-.02.16-.033.321-.062.48-.12.674-.653 1.13-1.353 1.154-.29.01-.58-.01-.87.006-.226.012-.277-.083-.25-.288.11-.846.212-1.692.315-2.539.07-.566.141-1.131.21-1.697-.018-.007-.036-.017-.054-.026m18.004-3.541c.787.018 1.715-.053 2.636.096.681.112 1.34.286 1.898.72.571.444.853 1.036.895 1.749.04.713-.095 1.41-.173 2.115-.05.466-.134.924-.315 1.36-.442 1.061-1.285 1.615-2.368 1.86a7.853 7.853 0 01-1.653.184c-.958.009-1.916.005-2.875.003a2.433 2.433 0 01-.74-.102c-.469-.152-.65-.426-.593-.914.06-.51.137-1.02.201-1.531.125-.99.253-1.98.367-2.97.024-.208.088-.309.31-.295.376.023.758-.036 1.133.034.543.102.903.573.84 1.121-.108.96-.225 1.918-.353 2.875-.027.207.022.279.232.271.53-.023 1.062.032 1.592-.038 1.171-.152 1.71-.702 1.856-1.89.055-.447.111-.894.176-1.34.152-1.059-.403-1.75-1.472-1.785-.781-.026-1.563-.011-2.344-.013-.153-.002-.307.002-.458-.003-.817-.032-1.156-.445-1.168-1.31-.002-.191.118-.198.257-.198l2.119.001"/>
</g>
</g>
</svg>
