<svg id="Icons" height="512" viewBox="0 0 74 74" width="512" xmlns="http://www.w3.org/2000/svg"><path d="m58.313 65.911h-48.713a1 1 0 0 1 -1-1v-61.911a1 1 0 0 1 1-1h48.713a1 1 0 0 1 1 1v61.911a1 1 0 0 1 -1 1zm-47.716-2h46.716v-59.911h-46.713z"/><path d="m64.4 72h-48.713a1 1 0 0 1 -1-1v-6.089a1 1 0 0 1 2 0v5.089h46.713v-59.911h-5.09a1 1 0 0 1 0-2h6.09a1 1 0 0 1 1 1v61.911a1 1 0 0 1 -1 1z"/><path d="m50.151 16.179h-32.392a1 1 0 0 1 0-2h32.392a1 1 0 1 1 0 2z"/><path d="m50.151 28.7h-32.392a1 1 0 0 1 0-2h32.392a1 1 0 0 1 0 2z"/><path d="m50.151 41.214h-32.392a1 1 0 0 1 0-2h32.392a1 1 0 1 1 0 2z"/><path d="m50.151 53.731h-32.392a1 1 0 0 1 0-2h32.392a1 1 0 0 1 0 2z"/></svg>