<?xml version="1.0" encoding="iso-8859-1"?>
<!-- Generator: Adobe Illustrator 18.1.1, SVG Export Plug-In . SVG Version: 6.00 Build 0)  -->
<svg version="1.1" id="Capa_1" xmlns="http://www.w3.org/2000/svg" xmlns:xlink="http://www.w3.org/1999/xlink" x="0px" y="0px"
	 viewBox="0 0 290 290" style="enable-background:new 0 0 290 290;" xml:space="preserve">
<g>
	<path id="circle25636" d="M145,0C64.978,0,0,64.978,0,145c0,80.022,64.978,145,145,145s145-64.978,145-145S225.022,0,145,0z
		 M145,10c74.618,0,135,60.382,135,135s-60.382,135-135,135S10,219.618,10,145C10,70.382,70.382,10,145,10z M141,21.5
		c-3.381-0.048-3.381,5.048,0,5c67.684,0,122.5,54.816,122.5,122.5c-0.048,3.381,5.048,3.381,5,0
		C268.5,78.613,211.387,21.5,141,21.5z M72.951,67.953c-4.488,0.003-6.7,5.458-3.482,8.586l47.52,47.521
		C112.603,129.907,110,137.161,110,145c0,19.271,15.729,35,35,35s35-15.729,35-35c0-7.839-2.603-15.093-6.988-20.939l29.521-29.521
		c3.271-3.18,0.925-8.72-3.635-8.584c-1.299,0.038-2.532,0.58-3.438,1.512l-29.521,29.521C160.093,112.603,152.839,110,145,110
		s-15.093,2.603-20.939,6.988l-47.521-47.52C75.597,68.499,74.303,67.953,72.951,67.953z M145,120c13.866,0,25,11.134,25,25
		s-11.134,25-25,25s-25-11.134-25-25S131.134,120,145,120z M23.963,138.465c-1.38,0.02-2.482,1.155-2.463,2.535
		c0,70.387,57.113,127.5,127.5,127.5c3.381,0.048,3.381-5.048,0-5c-67.684,0-122.5-54.816-122.5-122.5
		C26.52,139.591,25.372,138.444,23.963,138.465z"/>
</g>
<g>
</g>
<g>
</g>
<g>
</g>
<g>
</g>
<g>
</g>
<g>
</g>
<g>
</g>
<g>
</g>
<g>
</g>
<g>
</g>
<g>
</g>
<g>
</g>
<g>
</g>
<g>
</g>
<g>
</g>
</svg>
